<svg xmlns="http://www.w3.org/2000/svg" viewBox="0 0 400 400" width="400" height="400">
  <defs>
    <linearGradient id="bg" x1="0" y1="0" x2="0" y2="1">
      <stop offset="0%" stop-color="#e8ebf0"/>
      <stop offset="100%" stop-color="#c9d1dc"/>
    </linearGradient>
    <linearGradient id="suit" x1="0" y1="0" x2="0" y2="1">
      <stop offset="0%" stop-color="#1a2844"/>
      <stop offset="100%" stop-color="#0c1629"/>
    </linearGradient>
  </defs>
  <rect width="400" height="400" fill="url(#bg)"/>
  <!-- Head -->
  <ellipse cx="200" cy="160" rx="62" ry="72" fill="#d4b896"/>
  <!-- Hair -->
  <path d="M 140 135 Q 140 95 200 90 Q 260 95 260 135 Q 260 115 240 108 Q 220 105 200 108 Q 180 105 160 108 Q 140 115 140 135 Z" fill="#3a2a1a"/>
  <!-- Collar/neck -->
  <path d="M 175 220 Q 200 230 225 220 L 230 260 L 170 260 Z" fill="#d4b896"/>
  <!-- Shirt -->
  <path d="M 140 260 Q 200 245 260 260 L 280 400 L 120 400 Z" fill="#ffffff"/>
  <!-- Suit jacket -->
  <path d="M 120 280 L 100 400 L 180 400 L 190 310 Q 200 305 210 310 L 220 400 L 300 400 L 280 280 Q 240 260 200 270 Q 160 260 120 280 Z" fill="url(#suit)"/>
  <!-- Tie -->
  <path d="M 195 265 L 205 265 L 210 320 L 200 340 L 190 320 Z" fill="#004388"/>
  <!-- Label -->
  <rect x="0" y="370" width="400" height="30" fill="rgba(0,67,136,0.9)"/>
  <text x="200" y="390" text-anchor="middle" fill="#ffffff" font-family="Inter, sans-serif" font-size="14" font-weight="500" letter-spacing="0.5">Platzhalter · Roger Hofstetter</text>
</svg>
